# xmcd CD database file
#
# Track frame offsets:
#	150
#	12584
#	32610
#	65397
#	81188
#	97594
#	113531
#	129300
#
# Disc length: 1931 seconds
#
# Revision: 0
# Processed by: cddbd v1.5.2PL0 Copyright (c) Steve Scherf et al.
# Submitted via: CDex 1.51
#
DISCID=53078908
DTITLE=The Delta Project - The Back Porch
DYEAR=2010
DGENRE=Blues
TTITLE0=Heather Way
TTITLE1=Mandy's Cryin
TTITLE2=King Bee
TTITLE3=Give Your Love to Me
TTITLE4=With Style
TTITLE5=Driftin'
TTITLE6=Love My Baby
TTITLE7=Manic Depression
EXTD=YEAR: 2010
EXTT0=
EXTT1=
EXTT2=
EXTT3=
EXTT4=
EXTT5=
EXTT6=
EXTT7=
PLAYORDER=
